<svg width="288" height="288" opacity=".2" xmlns="http://www.w3.org/2000/svg"><svg xmlns="http://www.w3.org/2000/svg" viewBox="0 0 430.147 430.147" width="288" height="288"><path d="M428.455 236.626c-11.325-31.135-29.108-58.962-52.855-82.709-31.284-31.284-70.155-52.318-112.446-61.395 7.952-7.12 12.968-17.456 12.968-28.945 0-21.426-17.431-38.857-38.857-38.857a38.627 38.627 0 0 0-22.175 6.976c-6.472-4.531-14.154-6.98-22.218-6.98-21.422 0-38.85 17.433-38.85 38.86 0 11.518 5.041 21.877 13.026 28.999a227.72 227.72 0 0 0-36.068 11.031c-27.426 10.935-52.076 26.827-73.264 47.233-25.363 24.423-44.22 53.336-56.047 85.931-3.1 8.532-1.833 18.075 3.388 25.527a28.116 28.116 0 0 0 17.283 11.372 197.062 197.062 0 0 0-4.252 40.762c0 50.177 40.822 91 91 91h212c50.178 0 91-40.823 91-91 0-13.973-1.473-27.607-4.252-40.764a28.054 28.054 0 0 0 17.243-11.353 28.083 28.083 0 0 0 3.376-25.688zM237.264 39.719c13.155 0 23.857 10.702 23.857 23.857s-10.703 23.857-23.857 23.857-23.857-10.702-23.857-23.857 10.703-23.857 23.857-23.857zm-44.393-.005c4.137 0 8.11 1.052 11.624 3.019a38.61 38.61 0 0 0-6.088 20.842 38.61 38.61 0 0 0 6.087 20.84 23.717 23.717 0 0 1-11.623 3.018c-13.151 0-23.85-10.704-23.85-23.86s10.699-23.859 23.85-23.859zM321.087 390.43h-212c-41.907 0-76-34.094-76-76 0-100.355 81.645-182 182-182s182 81.645 182 182c0 41.906-34.094 76-76 76zm91.702-136.72c-2.072 2.96-5.147 4.844-8.626 5.383-23.972-81.772-99.656-141.663-189.077-141.663S49.98 177.322 26.009 259.095c-3.494-.538-6.584-2.431-8.669-5.407-2.453-3.501-3.026-7.801-1.573-11.801 11.04-30.427 28.654-57.425 52.353-80.246 39.454-37.998 93.522-59.57 148.428-59.202 56.059.367 108.778 22.415 148.446 62.083 22.186 22.186 38.795 48.17 49.366 77.233 1.478 4.061.905 8.418-1.571 11.955z" fill="#fff" class="color000 svgShape"/></svg></svg>