<svg xmlns="http://www.w3.org/2000/svg" viewBox="0 0 512 512" style="enable-background:new 0 0 512 512" xml:space="preserve" fill="#fff" opacity=".5"><path d="M418.472 68.409H25.119C11.268 68.409 0 79.677 0 93.528v256.534c0 13.851 11.268 25.119 25.119 25.119h247.983a8.017 8.017 0 0 0 0-16.034H25.119c-5.01 0-9.086-4.076-9.086-9.086V93.528c0-5.01 4.076-9.086 9.086-9.086h393.353c5.01 0 9.086 4.076 9.086 9.086v111.167a8.017 8.017 0 0 0 16.034 0V93.528c-.001-13.851-11.269-25.119-25.12-25.119z"/><path d="M401.37 222.33c-61.002 0-110.63 49.629-110.63 110.63s49.629 110.63 110.63 110.63S512 393.962 512 332.96s-49.629-110.63-110.63-110.63zm0 205.227c-52.161 0-94.597-42.436-94.597-94.597s42.436-94.597 94.597-94.597 94.597 42.436 94.597 94.597-42.437 94.597-94.597 94.597zm-265.086-299.29H67.875c-9.136 0-16.568 7.432-16.568 16.568v51.307c0 9.136 7.432 16.568 16.568 16.568h68.409c9.136 0 16.568-7.432 16.568-16.568v-51.307c0-9.136-7.432-16.568-16.568-16.568zm-50.773 68.409H67.875a.534.534 0 0 1-.534-.534v-51.307c0-.295.239-.534.534-.534h17.637v52.375zm51.307-.534a.534.534 0 0 1-.534.534h-34.739v-18.171h9.086a8.017 8.017 0 0 0 0-16.034h-9.086V144.3h34.739c.295 0 .534.239.534.534v51.308zm208.969-76.426a46.223 46.223 0 0 0-25.632 7.729 46.465 46.465 0 0 0-25.675-7.729c-25.638 0-46.497 20.858-46.497 46.497s20.858 46.497 46.497 46.497c9.47 0 18.284-2.853 25.641-7.735a46.523 46.523 0 0 0 25.666 7.735c25.638 0 46.497-20.858 46.497-46.497s-20.858-46.497-46.497-46.497zm-37.673 73.727a30.27 30.27 0 0 1-13.634 3.233c-16.798 0-30.463-13.666-30.463-30.463s13.666-30.464 30.463-30.464c4.781 0 9.448 1.127 13.652 3.234-5.555 7.66-8.842 17.065-8.842 27.229a46.429 46.429 0 0 0 8.824 27.231zm37.673 3.233a30.474 30.474 0 0 1-13.65-3.237c5.554-7.66 8.84-17.064 8.84-27.227a8.017 8.017 0 0 0-16.034 0 30.267 30.267 0 0 1-4.814 16.404 30.416 30.416 0 0 1-4.806-16.404c0-16.798 13.666-30.464 30.463-30.464s30.464 13.666 30.464 30.464-13.665 30.464-30.463 30.464zm-218.054 59.858H59.324a8.017 8.017 0 0 0 0 16.034h68.409a8.017 8.017 0 0 0 0-16.034zm136.818 51.307H59.324a8.017 8.017 0 0 0 0 16.034h205.228a8.017 8.017 0 1 0-.001-16.034zm-34.204-51.307h-68.409a8.017 8.017 0 0 0 0 16.034h68.409a8.017 8.017 0 0 0 0-16.034zm51.306 0h-17.102a8.017 8.017 0 0 0 0 16.034h17.102a8.017 8.017 0 0 0 0-16.034z"/><path d="M466.896 293.087a8.016 8.016 0 0 0-11.337 0l-71.292 71.291-37.087-37.087a8.016 8.016 0 0 0-11.337 0 8.016 8.016 0 0 0 0 11.337l42.756 42.756c1.565 1.566 3.617 2.348 5.668 2.348s4.103-.782 5.668-2.348l76.96-76.96a8.015 8.015 0 0 0 .001-11.337z"/></svg>