<svg xmlns="http://www.w3.org/2000/svg" viewBox="0 0 235.319 235.319"><path d="M201.094 29.997a5.998 5.998 0 0 0 4.623-5.835V6a6 6 0 0 0-6-6H35.603a6 6 0 0 0-6 6v18.163a5.998 5.998 0 0 0 4.623 5.835c1.812 32.314 18.594 61.928 45.682 80.076l11.324 7.586-11.324 7.586c-27.089 18.147-43.871 47.762-45.682 80.076a5.998 5.998 0 0 0-4.623 5.835v18.163a6 6 0 0 0 6 6h164.114a6 6 0 0 0 6-6v-18.163a5.998 5.998 0 0 0-4.623-5.835c-1.812-32.314-18.594-61.928-45.683-80.076l-11.324-7.586 11.324-7.586c27.089-18.148 43.871-47.763 45.683-80.077zM41.603 12h152.114v6.163H41.603V12zm152.114 211.319H41.603v-6.163h152.114v6.163zm-63.749-110.644a6 6 0 0 0 0 9.97l18.765 12.571c23.71 15.883 38.49 41.705 40.333 69.941H46.254c1.843-28.235 16.623-54.057 40.333-69.941l18.765-12.571a6 6 0 0 0 0-9.97l-18.765-12.571c-23.71-15.884-38.49-41.706-40.333-69.941h142.812c-1.843 28.236-16.623 54.057-40.333 69.941l-18.765 12.571z"/><path d="M133.307 82.66h-31.295a6.001 6.001 0 0 0-4.001 10.471l15.647 14c1.139 1.019 2.57 1.528 4 1.528s2.862-.509 4-1.528l15.647-14a6 6 0 0 0-3.998-10.471zM117.414 140.581l-15.218 9.775a48.017 48.017 0 0 0-21.292 39.892h76.511a48.017 48.017 0 0 0-21.292-39.892l-15.218-9.775a3.396 3.396 0 0 0-3.491 0z"/></svg>
