<svg xmlns="http://www.w3.org/2000/svg" viewBox="0 0 512 512" style="enable-background:new 0 0 512 512" xml:space="preserve"><path d="M395.13 89.043h-58.524a49.855 49.855 0 0 0 2.872-16.696c0-27.619-22.468-50.087-50.087-50.087-12.819 0-24.524 4.845-33.391 12.793-8.868-7.948-20.572-12.793-33.391-12.793-27.619 0-50.087 22.468-50.087 50.087a49.83 49.83 0 0 0 2.872 16.696H116.87c-27.662 0-50.087 22.424-50.087 50.087v16.696h378.435V139.13c-.001-27.662-22.425-50.087-50.088-50.087zm-172.521 0c-9.206 0-16.696-7.49-16.696-16.696s7.49-16.696 16.696-16.696 16.696 7.49 16.696 16.696-7.49 16.696-16.696 16.696zm66.782 0c-9.206 0-16.696-7.49-16.696-16.696s7.49-16.696 16.696-16.696 16.696 7.49 16.696 16.696-7.49 16.696-16.696 16.696zM456.607 189.217H55.394C16.792 263.412 0 329.728 0 406.261c0 46.032 37.446 83.478 83.478 83.478h345.043c46.032 0 83.478-37.446 83.478-83.478.001-76.542-16.791-142.859-55.392-217.044z"/></svg>