<svg xmlns="http://www.w3.org/2000/svg" viewBox="0 0 512 512" style="enable-background:new 0 0 512 512" xml:space="preserve"><path d="M445.217 168.14v-29.01c0-27.618-22.469-50.087-50.087-50.087h-58.524a49.86 49.86 0 0 0 2.872-16.696c0-27.618-22.469-50.087-50.087-50.087-12.819 0-24.524 4.846-33.391 12.794-8.869-7.948-20.572-12.794-33.391-12.794-27.618 0-50.087 22.469-50.087 50.087 0 5.852 1.018 11.47 2.872 16.696H116.87c-27.618 0-50.087 22.469-50.087 50.087v29.01C20.018 251.085 0 322.549 0 406.261c0 46.03 37.448 83.478 83.478 83.478h345.043c46.03 0 83.478-37.448 83.478-83.478.001-83.712-20.018-155.177-66.782-238.121zM289.391 55.652c9.206 0 16.696 7.49 16.696 16.696s-7.49 16.696-16.696 16.696-16.696-7.49-16.696-16.696 7.49-16.696 16.696-16.696zm-66.782 0c9.206 0 16.696 7.49 16.696 16.696s-7.49 16.696-16.696 16.696-16.696-7.49-16.696-16.696 7.49-16.696 16.696-16.696zM100.174 139.13c0-9.206 7.49-16.696 16.696-16.696h278.26c9.206 0 16.696 7.49 16.696 16.696v16.696H100.174V139.13zm328.348 317.218H83.478c-27.618 0-50.087-22.469-50.087-50.087 0-77.053 17.418-140.568 59.845-217.043h325.526c42.428 76.475 59.846 139.991 59.846 217.043.001 27.618-22.468 50.087-50.086 50.087z"/></svg>