<svg fill="#fff" xmlns="http://www.w3.org/2000/svg" width="30" height="30"><path d="M6 4a2 2 0 0 0-2 2v18a2 2 0 0 0 2 2h18a2 2 0 0 0 2-2V6a2 2 0 0 0-2-2H6zm8.998 3a4.223 4.223 0 0 1 4.219 4.219 4.22 4.22 0 0 1-4.219 4.215 4.221 4.221 0 0 1-4.217-4.217A4.22 4.22 0 0 1 14.998 7zm0 2.52a1.697 1.697 0 1 0 1.697 1.697c0-.936-.761-1.697-1.697-1.697zm-3.203 5.949c.154.025.305.081.445.17a5.204 5.204 0 0 0 5.52 0 1.198 1.198 0 0 1 1.654.377 1.204 1.204 0 0 1-.377 1.658 7.692 7.692 0 0 1-2.38.984l2.292 2.293a1.2 1.2 0 1 1-1.697 1.697L15 20.396l-2.252 2.252a1.197 1.197 0 0 1-1.697 0 1.203 1.203 0 0 1-.002-1.699l2.293-2.29a7.687 7.687 0 0 1-2.381-.987 1.2 1.2 0 0 1-.375-1.656 1.2 1.2 0 0 1 1.209-.547z"/></svg>